<svg id="Capa_1" enable-background="new 0 0 512 512" height="512" viewBox="0 0 512 512" width="512" xmlns="http://www.w3.org/2000/svg"><g><g><path d="m435.54 384.434-46.584-15.379v39.997 54.043c0 6.951-6.43 12.119-13.218 10.624l-90.158-19.851c-2.299-.506-4.579-1.057-6.841-1.647-22.833 13.938-49.663 21.972-78.372 21.972h-67.322c-5.523 0-10-4.477-10-10v-95.137l-46.585 15.378c-16.389 5.411-27.46 20.724-27.46 37.984v77.082c0 2.761 2.239 5 5 5h404c2.761 0 5-2.239 5-5v-77.082c0-17.26-11.071-32.573-27.46-37.984z" fill="#d8aa5e"/></g><g><g><g><path d="m123.045 369.055-46.585 15.379c-16.389 5.411-27.46 20.724-27.46 37.984v77.082c0 2.761 2.239 5 5 5h28v-74.56c0-13.095 8.399-24.713 20.834-28.818l20.211-6.672z" fill="#c99c56"/></g></g></g><g><path d="m145.522 299.612c-14.36-27.773-22.478-59.296-22.478-92.719v257.299c0 5.523 4.477 10 10 10h67.322c28.708 0 55.539-8.034 78.372-21.972-71.933-18.784-124.451-79.755-133.216-152.608z" fill="#fef1da"/></g><g><path d="m165.045 464.192v-102.133c-10.112-19.14-16.851-40.241-19.522-62.447-14.36-27.773-22.478-59.296-22.478-92.719v257.299c0 5.523 4.477 10 10 10h42c-5.523 0-10-4.477-10-10z" fill="#fae2c0"/></g><path d="m145.522 299.612c9.04 75.143 64.628 137.647 140.057 154.256l90.158 19.851c6.788 1.495 13.218-3.673 13.218-10.624v-54.043h-63.753c-78.226 0-146.068-44.436-179.68-109.44z" fill="#4fc123"/><g><g><path d="m213.491 375.393c-28.611-19.007-52.104-45.099-67.969-75.781 9.013 74.917 64.297 137.266 139.38 154.099-31.221-18.407-56.058-45.82-71.411-78.318z" fill="#47a920"/></g></g><g><g><path d="m123.045 140.455v66.438c0 111.649 90.509 202.158 202.158 202.158h63.753v-268.596c-.001-73.429-59.527-132.955-132.956-132.955-73.429 0-132.955 59.526-132.955 132.955z" fill="#fef1da"/></g></g><path d="m183.188 290.795c-19.676-16.509-32.188-41.277-32.188-68.971v-63.647c0-15.749 6.076-30.072 16-40.776 9.729-55.639 54.045-99.381 109.977-108.247-6.833-1.084-13.838-1.654-20.977-1.654-73.429 0-132.955 59.526-132.955 132.955v66.438c0 111.649 90.509 202.158 202.158 202.158h41.955c-81.715.001-152.099-48.486-183.97-118.256z" fill="#fae2c0"/><g><g><path d="m301 129.353h-90c-33.137 0-60 26.863-60 60v32.471c0 49.706 40.294 90 90 90h30c49.706 0 90-40.294 90-90v-32.471c0-33.137-26.863-60-60-60z" fill="#ea9b58"/></g></g><g><g><path d="m181 221.824v-63.647c0-8.229 1.66-16.07 4.658-23.21-20.468 9.553-34.658 30.307-34.658 54.386v32.471c0 49.706 40.294 90 90 90h30c-49.706 0-90-40.295-90-90z" fill="#d88a55"/></g></g><g><g><path d="m301 98.176h-90c-33.137 0-60 26.863-60 60v31.176c0-33.137 26.863-60 60-60h90c33.137 0 60 26.863 60 60v-31.176c0-33.137-26.863-60-60-60z" fill="#4fc123"/></g></g><g><g><path d="m211.627 98.176h-.627c-33.137 0-60 26.863-60 60v31.176c0-23.815 13.886-44.371 33.994-54.062 5.038-14.712 14.532-28.31 26.633-37.114z" fill="#47a920"/></g></g><g><path d="m463 441.5c4.142 0 7.5-3.358 7.5-7.5v-11.582c0-20.54-13.104-38.666-32.609-45.106l-41.436-13.679v-41.633c0-4.142-3.358-7.5-7.5-7.5s-7.5 3.358-7.5 7.5v79.552h-56.252c-107.335 0-194.659-87.323-194.659-194.658v-66.438c0-69.177 56.28-125.456 125.456-125.456s125.456 56.279 125.456 125.455v146.545c0 4.142 3.358 7.5 7.5 7.5s7.5-3.358 7.5-7.5v-146.545c0-77.447-63.009-140.455-140.456-140.455s-140.456 63.008-140.456 140.455v223.177l-41.436 13.68c-19.504 6.44-32.608 24.566-32.608 45.106v77.082c0 6.893 5.607 12.5 12.5 12.5h404c6.893 0 12.5-5.607 12.5-12.5v-30.5c0-4.142-3.358-7.5-7.5-7.5s-7.5 3.358-7.5 7.5v28h-399v-74.582c0-14.054 8.966-26.456 22.311-30.862l36.733-12.127v84.763c0 9.649 7.851 17.5 17.5 17.5h67.322c28.949 0 56.103-7.825 79.467-21.462 1.373.335 2.751.658 4.133.962l90.158 19.852c1.325.292 2.659.435 3.983.435 4.14 0 8.178-1.402 11.483-4.059 4.363-3.507 6.865-8.728 6.865-14.325v-54.043-29.623l36.733 12.127c13.345 4.406 22.312 16.808 22.312 30.862v11.582c0 4.142 3.358 7.5 7.5 7.5zm-262.633 25.192h-67.322c-1.378 0-2.5-1.122-2.5-2.5v-179.438c2.327 5.798 4.902 11.47 7.719 17 4.389 34.144 18.14 66.776 39.83 93.762 21.3 26.5 49.563 46.7 81.256 58.433-17.997 8.174-37.964 12.743-58.983 12.743zm181.089-3.597c0 1.409-.791 2.254-1.262 2.633-.472.378-1.467.972-2.844.666l-90.158-19.852c-38.266-8.425-72.859-29.885-97.406-60.425-11.238-13.982-20.152-29.616-26.527-46.213 38.484 46.771 96.789 76.647 161.944 76.647h56.252v46.544z"/><path d="m254.393 243.771h13.215c4.142 0 7.5-3.358 7.5-7.5s-3.358-7.5-7.5-7.5h-13.215c-1.378 0-2.5-1.122-2.5-2.5v-29.501c0-4.142-3.358-7.5-7.5-7.5s-7.5 3.358-7.5 7.5v29.501c0 9.649 7.85 17.5 17.5 17.5z"/><path d="m284.559 254.967c-7.636 7.636-17.778 11.841-28.559 11.841s-20.923-4.205-28.559-11.841c-2.928-2.929-7.677-2.929-10.606 0s-2.929 7.677 0 10.606c10.468 10.469 24.377 16.234 39.165 16.234s28.697-5.766 39.165-16.234c2.929-2.929 2.929-7.678 0-10.606s-7.678-2.928-10.606 0z"/><path d="m201.105 189.176c-4.142 0-7.5 3.358-7.5 7.5v14.692c0 4.142 3.358 7.5 7.5 7.5s7.5-3.358 7.5-7.5v-14.692c0-4.142-3.357-7.5-7.5-7.5z"/><path d="m186.374 177.609c8.123-8.123 21.341-8.123 29.464 0 1.464 1.464 3.384 2.197 5.303 2.197s3.839-.732 5.303-2.197c2.929-2.929 2.929-7.678 0-10.606-13.972-13.972-36.705-13.972-50.677 0-2.929 2.929-2.929 7.678 0 10.606 2.929 2.929 7.678 2.929 10.607 0z"/><path d="m310.895 189.176c-4.142 0-7.5 3.358-7.5 7.5v14.692c0 4.142 3.358 7.5 7.5 7.5s7.5-3.358 7.5-7.5v-14.692c0-4.142-3.358-7.5-7.5-7.5z"/><path d="m296.163 177.609c8.123-8.123 21.341-8.123 29.464 0 1.464 1.464 3.384 2.197 5.303 2.197s3.839-.732 5.303-2.197c2.929-2.929 2.929-7.678 0-10.606-13.972-13.972-36.705-13.972-50.677 0-2.929 2.929-2.929 7.678 0 10.606 2.929 2.929 7.678 2.929 10.607 0z"/><path d="m211 105.676h12c4.142 0 7.5-3.358 7.5-7.5s-3.358-7.5-7.5-7.5h-12c-37.22 0-67.5 30.28-67.5 67.5v63.647c0 53.762 43.738 97.5 97.5 97.5h30c53.762 0 97.5-43.738 97.5-97.5v-63.647c0-37.22-30.28-67.5-67.5-67.5h-43c-4.142 0-7.5 3.358-7.5 7.5s3.358 7.5 7.5 7.5h43c24.39 0 44.949 16.717 50.818 39.295-12.382-14.162-30.573-23.119-50.818-23.119h-90c-20.246 0-38.436 8.957-50.818 23.119 5.869-22.578 26.428-39.295 50.818-39.295zm0 31.177h90c28.949 0 52.5 23.551 52.5 52.5v32.471c0 45.491-37.009 82.5-82.5 82.5h-30c-45.491 0-82.5-37.009-82.5-82.5v-32.471c0-28.949 23.551-52.5 52.5-52.5z"/></g></g></svg>