<svg id="Capa_1" enable-background="new 0 0 512 512" height="512" viewBox="0 0 512 512" width="512" xmlns="http://www.w3.org/2000/svg"><g><g><path d="m102.917 10.754c-58.145 0-45.388 59.256-82.853 76.539-13.358 6.162-16.926 23.6-6.499 33.977 14.42 14.351 39.26 25.156 80.091 7.614l62.78-39.73c0 .001 15.961-78.4-53.519-78.4z" fill="#43404f"/><path d="m93.666 128.885h-.01c29.458-46.53 81.396-77.422 140.538-77.422 59.153 0 111.081 30.893 140.538 77.412v.01l-140.538 111.241z" fill="#5b596e"/><path d="m188.635 370.193 24.37 65.526-24.37 65.526h-94.979c0-90.871 74.336-131.053 74.336-131.053h20.643z" fill="#9ee4d4"/><path d="m374.733 501.246h-94.979l-24.37-65.526 24.37-65.526h20.643c0-.001 74.336 40.181 74.336 131.052z" fill="#9ee4d4"/><path d="m188.635 370.193h91.119v131.053h-91.119z" fill="#eebdc2"/><path d="m331.909 445.076c7.235-26.021 30.913-45.198 59.143-45.652 31.285-.506 57.894 22.511 62.683 52.64l-29.232 16.696h-73.689z" fill="#b7def3"/><circle cx="392.071" cy="382.142" fill="#f2d1a5" r="28.561"/><path d="m358.871 423.118c0-4.985.305-9.891.886-14.702-13.43 8.135-23.546 21.187-27.849 36.66l18.904 23.684h16.992c-5.738-13.921-8.933-29.372-8.933-45.642z" fill="#93c9e9"/><path d="m454.508 462.705c-.289 21.448-18.073 38.541-39.521 38.541h-45.828c-21.603 0-39.377-17.34-39.532-38.943v-.454c0-5.811.795-11.436 2.281-16.773 36.776-7.442 82.449 6.781 121.826 6.988.444 2.746.702 5.563.764 8.422.01.743.021 1.486.01 2.219z" fill="#e48794"/><circle cx="445.08" cy="274.728" fill="#eebdc2" r="18.48"/><circle cx="478.444" cy="207.634" fill="#e48794" r="26.056"/><path d="m267.053 54.716c-10.622-2.13-21.609-3.254-32.858-3.254-59.143 0-111.081 30.893-140.539 77.422h.01l27.992 22.159c26.973-54.603 81.584-92.911 145.395-96.327z" fill="#4f4d5f"/><path d="m400.423 217.692c0 91.8-74.418 166.229-166.229 166.229-91.8 0-166.229-74.429-166.229-166.229 0-32.657 9.424-63.116 25.69-88.807h.01s70.269 19.704 140.528-32.554c70.269 52.258 140.538 32.554 140.538 32.554 16.279 25.69 25.692 56.149 25.692 88.807z" fill="#f2d1a5"/><path d="m103.656 228.439c0-35.484 10.555-68.481 28.662-95.996-23.396.716-38.652-3.559-38.652-3.559h-.01c-16.267 25.69-25.69 56.149-25.69 88.807 0 75.143 49.875 138.636 118.321 159.208-49.561-30.579-82.631-85.627-82.631-148.46z" fill="#eb8"/><path d="m409.801 199.378c-2.047-19.766-18.782-34.749-38.654-34.749h-273.903c-19.868 0-36.6 14.977-38.653 34.739-.626 6.024-.947 12.137-.947 18.324 0 .228 0 .457.001.685.136 35.418 29.15 63.949 64.568 63.949h20.447c16.727 0 32.924-5.87 45.767-16.587 26.504-22.116 65.03-22.116 91.534 0 12.843 10.717 29.04 16.587 45.767 16.587h20.447c35.419 0 64.433-28.531 64.568-63.95.001-.228.001-.456.001-.684.001-6.184-.319-12.294-.943-18.314z" fill="#93c9e9"/><path d="m417.422 314.664h-50.702c-11.959 0-21.653 9.694-21.653 21.653 0 11.959 9.695 21.653 21.653 21.653h50.702c11.959 0 21.653-9.694 21.653-21.653 0-11.959-9.694-21.653-21.653-21.653z" fill="#b7def3"/><path d="m103.656 228.439c0-22.527 4.25-44.053 11.987-63.811h-18.399c-19.868 0-36.6 14.977-38.653 34.739-.626 6.024-.947 12.137-.947 18.324 0 .228 0 .457.001.685.122 31.889 23.659 58.183 54.198 63.108-5.31-16.724-8.187-34.545-8.187-53.045z" fill="#80c0e4"/><path d="m360.493 442.991c-9.916-.263-19.521.251-28.584 2.085-1.486 5.336-2.281 10.961-2.281 16.773v.454c.155 21.603 17.929 38.943 39.532 38.943h19.073c-14.109-15.585-24.025-35.736-27.74-58.255z" fill="#e06f7d"/></g><g><path d="m139.689 251.143c4.142 0 7.5-3.358 7.5-7.5v-18.161c0-4.142-3.358-7.5-7.5-7.5s-7.5 3.358-7.5 7.5v18.161c0 4.143 3.358 7.5 7.5 7.5z"/><path d="m328.71 251.143c4.142 0 7.5-3.358 7.5-7.5v-18.161c0-4.142-3.358-7.5-7.5-7.5s-7.5 3.358-7.5 7.5v18.161c.001 4.143 3.358 7.5 7.5 7.5z"/><path d="m234.2 297.23c10.289 0 20.073-4.456 26.843-12.226 2.721-3.122 2.396-7.86-.727-10.581-3.122-2.721-7.86-2.396-10.581.727-3.921 4.5-9.583 7.08-15.535 7.08-5.951 0-11.614-2.581-15.535-7.081-2.722-3.123-7.459-3.447-10.582-.727-3.122 2.722-3.448 7.459-.727 10.582 6.772 7.77 16.556 12.226 26.844 12.226z"/><path d="m419.102 274.728c0 14.325 11.655 25.98 25.979 25.98 14.325 0 25.98-11.655 25.98-25.98s-11.655-25.98-25.98-25.98-25.979 11.655-25.979 25.98zm25.979-10.98c6.055 0 10.98 4.926 10.98 10.98 0 6.055-4.926 10.98-10.98 10.98s-10.98-4.926-10.98-10.98c.001-6.054 4.926-10.98 10.98-10.98z"/><path d="m478.444 241.19c18.503 0 33.556-15.053 33.556-33.556s-15.053-33.556-33.556-33.556-33.556 15.053-33.556 33.556 15.054 33.556 33.556 33.556zm0-52.111c10.232 0 18.556 8.324 18.556 18.556s-8.324 18.556-18.556 18.556-18.556-8.324-18.556-18.556c.001-10.232 8.325-18.556 18.556-18.556z"/><path d="m152.838 371.179c-7.449 5.457-17.597 13.924-27.752 25.638-2.713 3.13-2.375 7.867.754 10.58 3.131 2.713 7.868 2.375 10.58-.754 13.145-15.163 26.406-24.41 32.164-28.058 4.12 1.681 8.319 3.209 12.557 4.568v110.589h-32.489v-36.925c0-4.142-3.358-7.5-7.5-7.5s-7.5 3.358-7.5 7.5v36.925h-32.309c1.118-23.158 7.443-44.798 18.845-64.428 2.081-3.582.863-8.172-2.718-10.252s-8.172-.863-10.252 2.718c-13.97 24.052-21.054 50.787-21.054 79.462 0 4.142 3.358 7.5 7.5 7.5h321.325c25.584 0 46.675-20.607 47.02-45.935.353-26.323-14.139-51.012-38.354-63.284 2.851-5.159 4.479-11.083 4.479-17.383 0-6.287-1.621-12.201-4.461-17.352 13.081-2.869 22.904-14.542 22.904-28.472 0-16.074-13.078-29.152-29.153-29.152h-34.301c8.183-13.578 14.426-28.14 18.623-43.465 10.243-12.334 16.434-28.113 16.5-45.289l.001-.716c0-6.362-.331-12.783-.984-19.086-1.307-12.616-7.562-23.575-16.733-31.055-10.457-34.746-31.843-66.422-62.956-89.492-3.327-2.467-8.024-1.77-10.492 1.557-2.467 3.328-1.77 8.025 1.557 10.492 12.834 9.516 24.048 20.767 33.444 33.538-40.253 5.512-85.318-5.002-123.409-33.33-2.657-1.977-6.294-1.976-8.951 0-36.726 27.317-81.394 39.072-123.387 33.332 29.544-40.103 76.32-64.684 127.864-64.684 24.222 0 47.473 5.314 69.108 15.794 3.727 1.806 8.213.248 10.019-3.48 1.806-3.727.248-8.213-3.48-10.019-23.69-11.475-49.141-17.294-75.647-17.294-24.351 0-47.877 5-69.379 14.339-4.109-35.158-26.185-55.047-61.896-55.047-38.756 0-50.19 23.835-60.28 44.863-6.496 13.54-12.632 26.329-25.714 32.364-17.862 8.239-22.958 31.86-8.647 46.102 18.915 18.825 43.503 22.474 69.366 15.767-3.907 8.116-7.171 16.538-9.777 25.196-9.168 7.478-15.423 18.432-16.733 31.042-2.577 24.798-1.084 45.116 15.513 65.103 12.952 47.289 44.85 85.557 86.185 107.483zm-63.954-89.515c19.169 9.981 33.82 8.161 53.783 8.161 18.402 0 36.372-6.48 50.571-18.328 23.914-19.955 58.394-19.633 81.923 0 14.164 11.819 32.124 18.328 50.571 18.328h20.446c11.203 0 22.771-2.661 33.325-8.155-3.921 8.895-8.67 17.426-14.216 25.527-15.11.604-27.719 13.364-27.719 29.118 0 .561.02 1.117.051 1.671.002.033.001.065.003.098-29.209 25.12-65.958 38.334-103.424 38.334-63.483 0-120.261-37.778-145.314-94.754zm303.189 79.415c11.462 0 21.061 9.324 21.061 21.061 0 11.605-9.506 21.061-21.061 21.061-11.824 0-21.061-9.701-21.061-21.061 0-11.656 9.51-21.061 21.061-21.061zm-31.616 38.383c-3.528 1.784-6.877 3.851-10.02 6.175-12.345-16.365-25.657-27.705-34.863-34.448 9.619-5.105 18.784-11.136 27.37-18.038 4.131 5.817 10.335 10.058 17.529 11.636-2.84 5.151-4.461 11.065-4.461 17.352.001 6.275 1.615 12.179 4.445 17.323zm-164.316-12.232c12.259 2.741 25.329 4.188 38.059 4.188 12.899 0 26.105-1.513 38.058-4.187v106.511h-76.117zm91.117 106.511v-110.587c4.24-1.36 8.438-2.887 12.555-4.567 6.837 4.34 24.231 16.575 39.542 37.27-7.055 8.08-11.969 17.497-14.668 27.202s0 0 0 .001c.063 1.438-10.257 29.013 10.013 50.681zm159.752-31.141c-.231 17.172-14.596 31.142-32.021 31.142h-45.827c-17.535 0-31.891-14.121-32.031-31.469.042-3.814.217-6.72.958-10.652 32.369-4.753 72.862 6.309 108.872 7.78.053 1.195.059 2.568.05 3.195-.001.001-.001.002-.001.004zm-2.942-18.377c-31.842-1.848-68.721-10.936-100.415-8.331 5.593-10.386 14.799-19.511 27.092-24.678 12.618 9.291 29.946 9.313 42.59.048 14.409 6.144 25.677 18.337 30.733 32.961zm-12.491-107.907c0 7.804-6.349 14.153-14.153 14.153h-8.113c-5.224-2.852-11.259-4.39-17.238-4.39-6.086 0-12.083 1.575-17.238 4.39h-8.113c-7.919 0-14.149-6.484-14.153-14.148 0-.002 0-.003 0-.005 0-7.804 6.349-14.153 14.153-14.153h50.701c7.805 0 14.154 6.349 14.154 14.153zm-412.712-220.359c-6.768-6.736-4.195-17.909 4.35-21.85 17.986-8.297 25.938-24.872 32.954-39.496 9.744-20.31 17.441-36.352 46.756-36.352 18.355 0 31.07 5.73 38.872 17.518 6.023 9.1 8.058 20.46 8.575 29.624-25.123 13.831-46.271 33.718-61.759 57.474-29.5 12.118-52.957 9.793-69.748-6.918zm68.124 42.31c2.908-7.208 6.343-14.19 10.282-20.893.405-.008 68.098 16.539 136.93-31.787 43.128 30.276 94.047 39.784 136.931 31.789 3.94 6.702 7.376 13.683 10.284 20.892-3.352-.761-7.375-1.142-10.266-1.137-286.458.439-274.818-.968-284.161 1.136zm-20.929 41.877c1.668-16.056 15.173-28.014 31.193-28.014 23.996 0 274.016 0 273.898 0 16.091 0 29.535 12.02 31.193 28.021.6 5.791.904 11.693.904 17.541l-.001.655c-.055 14.379-5.551 27.514-14.529 37.495-11.009 12.243-26.581 18.983-42.531 18.983-.002 0-.005 0-.007 0h-20.446c-14.909 0-29.463-5.251-40.961-14.845-29.407-24.536-71.965-24.347-101.143 0-11.493 9.59-26.045 14.845-40.961 14.845-22.067-.028-43.308 2.879-62.982-18.98-8.979-9.982-14.477-23.118-14.531-37.5.009-.44-.135-8.205.904-18.201z"/></g></g></svg>