<svg height="512" viewBox="0 0 58 60" width="512" xmlns="http://www.w3.org/2000/svg"><g id="Page-1" fill="none" fill-rule="evenodd"><g id="017---Girl-with-Glasses" transform="translate(0 -1)"><path id="Shape" d="m40 25c-1.7983249-1.2701972-4.2016751-1.2701972-6 0" stroke="#000" stroke-linecap="round" stroke-linejoin="round" stroke-width="2"/><path id="Shape" d="m18 25c1.7983249-1.2701972 4.2016751-1.2701972 6 0" stroke="#000" stroke-linecap="round" stroke-linejoin="round" stroke-width="2"/><g fill-rule="nonzero"><path id="Shape" d="m55 54s-2.91 4.37-10.6 3.17c-.3450865-.7919111-.8370974-1.511265-1.45-2.12-1.3102237-1.3166613-3.0925123-2.0547808-4.95-2.05h-4c0 1.6568542-1.3431458 3-3 3h-4c-1.6548028-.0049422-2.9950578-1.3451972-3-3h-4c-2.7682246-.000791-5.2768918 1.6298427-6.4 4.16-7.69 1.21-10.6-3.16-10.6-3.16 2.35554096-3.2148746 2.79509651-7.4498968 1.15-11.08h.01c-5.36318569-10.3097821-3.8004015-22.8608093 3.92725931-31.5405918 7.72766079-8.6797826 20.01367379-11.68385693 30.87461409-7.54920545 10.8609403 4.13465149 18.0388975 14.54846485 18.0381266 26.16979725.0092545 4.5066902-1.078736 8.9478881-3.17 12.94h.01c-1.6309407 3.6269302-1.1879741 7.8503881 1.16 11.06z" fill="#ff9801"/><path id="Shape" d="m53.84 42.94h-.01c4.5232833-8.6797241 4.1859681-19.0913542-.8896499-27.4600938-5.0756181-8.36873964-14.1527201-13.47971263-23.9403501-13.4799062-.5 0-1 .015-1.5.041 9.5071714.51019301 18.103631 5.81643488 22.8209797 14.0864546 4.7173486 8.2700198 4.9090921 18.3704433.5090203 26.8135454h.01c-1.6305492 3.6266551-1.1875942 7.8496201 1.16 11.059 0 0-1.869 2.787-6.544 3.293 6.894.66 9.544-3.293 9.544-3.293-2.3479741-3.2096119-2.7909407-7.4330698-1.16-11.06z" fill="#f57c00"/><path id="Shape" d="m47 28v5c-.0011972.668145-.0379157 1.3357538-.11 2-1.0530866 9.359428-9.1375886 16.3282252-18.55 15.99-1.4701803-.0516089-2.9281465-.2867648-4.34-.7-6.9096353-2.1327405-11.9294145-8.1150026-12.83-15.29-.1169931-.804648-.1738173-1.6169003-.17-2.43v-4.57h1s3-4 3-8c0 0 4 2 14 2s14-2 14-2c0 4 3 8 3 8z" fill="#ffe0b2"/><path id="Shape" d="m46 28s-3-4-3-8c-.9470886.407833-1.9331477.7184266-2.943.927.4207995 2.5535401 1.4282021 4.974661 2.943 7.073h1v5c-.0011972.668145-.0379157 1.3357538-.11 2-.8143349 7.2322167-5.8996536 13.2643751-12.89 15.29-1.1640973.3342719-2.3593047.548719-3.567.64.3.026.6.05.907.06 9.4124114.3382252 17.4969134-6.630572 18.55-15.99.0720843-.6642462.1088028-1.331855.11-2v-5z" fill="#dfc49c"/><path id="Shape" d="m52 31.5c0 1.9329966-1.5670034 3.5-3.5 3.5h-1.61c.0720843-.6642462.1088028-1.331855.11-2v-5h1.5c1.9291303.0093024 3.4906976 1.5708697 3.5 3.5z" fill="#ffe0b2"/><path id="Shape" d="m34 50.29v2.71c0 1.6568542-1.3431458 3-3 3h-4c-1.6548028-.0049422-2.9950578-1.3451972-3-3v-2.71c1.4118535.4132352 2.8698197.6483911 4.34.7 1.9119397.0703596 3.8228085-.1659669 5.66-.7z" fill="#ffe0b2"/><path id="Shape" d="m45 60h-32.0000351c-.003084-.9784483.2014183-1.9464255.6000351-2.84 1.1231082-2.5301573 3.6317754-4.160791 6.4-4.16h4c.0049422 1.6548028 1.3451972 2.9950578 3 3h4c1.6568542 0 3-1.3431458 3-3h4c1.8574877-.0047808 3.6397763.7333387 4.95 2.05 1.3099426 1.3147143 2.0468544 3.0940869 2.05 4.95z" fill="#9d27b0"/><path id="Shape" d="m44.4 57.17c-.3450865-.7919111-.8370974-1.511265-1.45-2.12-1.3102237-1.3166613-3.0925123-2.0547808-4.95-2.05l-3-.0000231c1.8574877-.0047577 3.6397763.7333618 4.95 2.0500231 1.3099426 1.3147143 2.0468544 3.0940869 2.05 4.95h3.0000628c.0041161-.9753347-.2004642-1.9402718-.6000628-2.83z" fill="#6a1b9a"/><path id="Shape" d="m11.17 35h-1.67c-1.93299662 0-3.5-1.5670034-3.5-3.5.00930245-1.9291303 1.57086971-3.4906976 3.5-3.5h1.5v4.57c-.0038173.8130997.0530069 1.625352.17 2.43z" fill="#ffe0b2"/><rect id="Rectangle-path" fill="#02a9f4" height="8" rx="2" width="11" x="16" y="28"/><path id="Shape" d="m25 28h-3c1.1045695 0 2 .8954305 2 2v4c0 1.1045695-.8954305 2-2 2h3c1.1045695 0 2-.8954305 2-2v-4c0-1.1045695-.8954305-2-2-2z" fill="#0377bc"/><rect id="Rectangle-path" fill="#02a9f4" height="8" rx="2" width="11" x="31" y="28"/><path id="Shape" d="m40 28h-3c1.1045695 0 2 .8954305 2 2v4c0 1.1045695-.8954305 2-2 2h3c1.1045695 0 2-.8954305 2-2v-4c0-1.1045695-.8954305-2-2-2z" fill="#0377bc"/><path id="Shape" d="m34.593 25.805c1.4448494-1.0174631 3.3731506-1.0174631 4.818 0 .443005.2732867 1.0215715.1610337 1.3302354-.2580911s.2441911-1.0049433-.1482354-1.3469089c-2.1465115-1.5440354-5.0394885-1.5440354-7.186 0-.4330845.3312574-.520978.9483931-.1975942 1.387388s.938832.5380168 1.3835942.222612z" fill="#000"/><path id="Shape" d="m18.589 25.808c1.4445664-1.0183563 3.3734336-1.0183563 4.818 0 .2871917.219667.670594.2671965 1.0027311.1243063s.5612724-.4539424.5992689-.81351c.0379965-.3595677-.1210645-.7116416-.416-.9207963-2.1463121-1.5446539-5.0396879-1.5446539-7.186 0-.4348199.329891-.5248048.9475009-.202193 1.3877487.3226118.4402477.9386393.5404946 1.384193.2252513z" fill="#000"/><path id="Shape" d="m28 40h2c.5522847 0 1-.4477153 1-1s-.4477153-1-1-1h-2c-.5522847 0-1 .4477153-1 1s.4477153 1 1 1z" fill="#000"/><path id="Shape" d="m3.266 43.386c1.46426509 3.2979181 1.05106703 7.1273447-1.083 10.037-.23882254.3383335-.24438962.7888687-.014 1.133.124.186 2.944 4.272 10.007 3.78-.1167448.5469779-.1757348 1.1047021-.176 1.664 0 .5522847.4477153 1 1 1h32c.5522847 0 1-.4477153 1-1-.0011862-.5602929-.0605038-1.1189506-.177-1.667.405.029.8.048 1.181.048 6.2 0 8.711-3.649 8.829-3.825.2284184-.3438623.2220625-.7927428-.016-1.13-2.1527063-2.9027734-2.5670134-6.7428608-1.083-10.038.0192952-.0367921.0360024-.0748844.05-.114 5.5020906-10.6879186 3.8399147-23.6623365-4.1787613-32.6180856-8.0186759-8.955749-20.7312894-12.03597739-31.9599012-7.74378883-11.22861174 4.29218856-18.64512308 15.06686763-18.6453375 27.08787443-.01410762 4.6140857 1.08715596 9.1632306 3.21 13.26.01576883.043229.03447926.0853274.056.126zm10.817 15.614c.4918328-2.8850396 2.9903399-4.996335 5.917-5h3.142c.4545933 1.7606851 2.0395884 2.9931852 3.858 3h4c1.8184116-.0068148 3.4034067-1.2393149 3.858-3h3.142c2.283684-.0038945 4.3699888 1.2938367 5.376 3.344.0258716.1501902.0857291.2924802.175.416.1675587.3985804.2906365.8144288.367 1.24zm-1.226-30.485c1.4777727-2.5049499 2.5075226-5.2483552 3.043-8.107 1.946.624 6.093 1.592 13.1 1.592s11.154-.968 13.1-1.592c.5354774 2.8586448 1.5652273 5.6020501 3.043 8.107.1807575.3008613.5060146.4849332.857.485v1h-3c0-1.6568542-1.3431458-3-3-3h-7c-1.3516837.0057822-2.5325714.9147873-2.884 2.22-.7150961-.2932883-1.5169039-.2932883-2.232 0-.3514286-1.3052127-1.5323163-2.2142178-2.884-2.22h-7c-1.6568542 0-3 1.3431458-3 3h-3v-1c.3509854-.0000668.6762425-.1841387.857-.485zm35.643.485c1.3770797.0087298 2.4912702 1.1229203 2.5 2.5 0 .6630412-.2633921 1.298926-.732233 1.767767-.468841.4688409-1.1047258.732233-1.767767.732233h-.55c.017-.334.05-.665.05-1v-4zm-16.5 1c0-.5522847.4477153-1 1-1h7c.5522847 0 1 .4477153 1 1v4c0 .5522847-.4477153 1-1 1h-7c-.5522847 0-1-.4477153-1-1zm-15 0c0-.5522847.4477153-1 1-1h7c.5522847 0 1 .4477153 1 1v4c0 .5522847-.4477153 1-1 1h-7c-.5522847 0-1-.4477153-1-1zm-7 2.566c0 .483.036.959.071 1.434h-.571c-1.38071187 0-2.5-1.1192881-2.5-2.5.00872977-1.3770797 1.12292032-2.4912702 2.5-2.5h.5zm2 0v-.566h3v2c0 1.6568542 1.3431458 3 3 3h7c1.6568542 0 3-1.3431458 3-3v-2c0-.5522847.4477153-1 1-1s1 .4477153 1 1v2c0 1.6568542 1.3431458 3 3 3h7c1.6568542 0 3-1.3431458 3-3v-2h3v1c-.0057748 7.6041268-5.0537924 14.2823015-12.368 16.362l-.029.01c-1.6993257.4759907-3.4625989.6834941-5.226.615-9.03-.323-16.377-8.138-16.377-17.421zm16.305 19.42c.235.008.468.012.7.012 1.3431438-.0032793 2.6822035-.1480787 3.995-.432v1.434c0 1.1045695-.8954305 2-2 2h-4c-1.1045695 0-2-.8954305-2-2v-1.455c1.0857088.2486109 2.1920905.39624 3.305.441zm.695-48.986c14.9048345.01653339 26.9834666 12.0951655 27 27 .0165637 4.3459612-1.0327381 8.6296947-3.056 12.476-.025978.0497511-.0477214.1016008-.065.155-1.6165079 3.6757331-1.2889057 7.9161744.873 11.3-.945.96-3.59 2.961-8.683 2.317-1.3914974-2.6123548-4.1091594-4.2454894-7.069-4.248h-3v-.981c6.7248057-2.2253525 11.6426338-8.0215433 12.743-15.019h.757c2.4841391-.0027556 4.4972444-2.0158609 4.5-4.5-.0082318-2.4818637-2.0181363-4.4917682-4.5-4.5h-1.49-.01-.01-.406c-.716-1.311-2.584-5.017-2.584-8 .0001616-.346618-.1791823-.6685998-.4739691-.8509316-.2947867-.1823318-.6629693-.1990067-.9730309-.0440684-.038.02-3.901 1.895-13.553 1.895-9.563 0-13.519-1.877-13.553-1.895-.3100616-.1549383-.6782442-.1382634-.9730309.0440684-.2947868.1823318-.4741307.5043136-.4739691.8509316 0 2.983-1.868 6.689-2.584 8h-.406-.01-.01-1.49c-2.48141003.0093215-4.49067851 2.01859-4.5 4.5.00275556 2.4841391 2.01586091 4.4972444 4.5 4.5h.82c1.2354228 6.9068293 6.0730058 12.624181 12.68 14.986v1.014h-3c-2.9582316.0018922-5.6739595 1.6360981-7.061 4.249-5.105.637-7.743-1.353-8.691-2.318 2.17836709-3.3906216 2.50132495-7.6507328.859-11.331-.01579446-.0496461-.03586986-.0978271-.06-.144-2.0145227-3.8420444-3.06047822-8.1178639-3.047-12.456.01653339-14.9048345 12.0951655-26.98346661 27-27z" fill="#000"/><path id="Shape" d="m21 33h1c.5522847 0 1-.4477153 1-1s-.4477153-1-1-1h-1c-.5522847 0-1 .4477153-1 1s.4477153 1 1 1z" fill="#000"/><path id="Shape" d="m36 33h1c.5522847 0 1-.4477153 1-1s-.4477153-1-1-1h-1c-.5522847 0-1 .4477153-1 1s.4477153 1 1 1z" fill="#000"/><path id="Shape" d="m26 44h6c.5522847 0 1-.4477153 1-1s-.4477153-1-1-1h-6c-.5522847 0-1 .4477153-1 1s.4477153 1 1 1z" fill="#000"/><path id="Shape" d="m30 46h-2c-.5522847 0-1 .4477153-1 1s.4477153 1 1 1h2c.5522847 0 1-.4477153 1-1s-.4477153-1-1-1z" fill="#000"/></g></g></g></svg>