<?xml version="1.0" encoding="iso-8859-1"?>
<!-- Generator: Adobe Illustrator 19.1.0, SVG Export Plug-In . SVG Version: 6.00 Build 0)  -->
<svg version="1.1" id="Capa_1" xmlns="http://www.w3.org/2000/svg" xmlns:xlink="http://www.w3.org/1999/xlink" x="0px" y="0px"
	 viewBox="0 0 466.03 466.03" style="enable-background:new 0 0 466.03 466.03;" xml:space="preserve">
<g>
	<path style="fill:#F9C5EE;" d="M412.64,241.07c10.7,3.4,18.47,13.43,18.47,25.23c0,11.84-7.81,21.88-18.55,25.26
		c0.05-1.71,0.08-3.43,0.08-5.16V241.07z"/>
	<path style="fill:#F9C5EE;" d="M53.39,286.4c0,1.73,0.03,3.45,0.08,5.16c-10.74-3.38-18.55-13.42-18.55-25.26
		c0-11.8,7.77-21.83,18.47-25.23V286.4z"/>
	<path style="fill:#7C460A;" d="M426.93,209.92c0,6.57-0.34,13.14-1,19.66c-4.06-2.36-8.53-4.07-13.29-4.98v-20.92
		c0-18.29-9.59-34.47-25.64-43.28c-15.96-8.74-34.61-8.15-49.91,1.61c-31.07,19.8-67.06,30.26-104.08,30.26s-73-10.46-104.07-30.26
		c-15.3-9.76-33.96-10.35-49.91-1.6c-16.05,8.8-25.64,24.98-25.64,43.27v20.92c-4.76,0.91-9.24,2.62-13.29,4.98
		c-0.66-6.51-1-13.09-1-19.66C39.1,102.99,126.09,16,233.01,16C339.94,16,426.93,102.99,426.93,209.92z"/>
	<path style="fill:#FCD9EB;" d="M396.64,203.68v82.72c0,90.23-73.4,163.63-163.62,163.63c-90.23,0-163.63-73.4-163.63-163.63v-82.72
		c0-12.36,6.48-23.29,17.34-29.25c5.06-2.77,10.52-4.15,15.96-4.15c6.11,0,12.2,1.75,17.65,5.22
		c33.64,21.44,72.6,32.77,112.67,32.77c40.08,0,79.04-11.33,112.68-32.77c10.3-6.56,22.86-6.96,33.61-1.07
		C390.16,180.39,396.64,191.32,396.64,203.68z M329.61,292.21c1.16-4.27-1.35-8.67-5.61-9.83l-17.18-4.69l16.44-9.39
		c3.84-2.19,5.17-7.08,2.98-10.91c-2.19-3.84-7.08-5.18-10.91-2.98l-33.22,18.96c-2.81,1.61-4.37,4.75-3.97,7.96
		c0.41,3.21,2.71,5.85,5.83,6.71l35.81,9.78c0.71,0.19,1.42,0.28,2.11,0.28C325.41,298.1,328.64,295.76,329.61,292.21z
		 M266.93,336.6c3.13-3.13,3.13-8.19,0-11.31c-3.12-3.13-8.19-3.13-11.31,0c-4.03,4.02-6.9,8.9-8.46,14.21
		c-10.29-3.11-20.92-3.11-31.2,0c-1.56-5.31-4.43-10.19-8.46-14.21c-3.13-3.13-8.19-3.13-11.32,0c-3.12,3.12-3.12,8.18,0,11.31
		c6.83,6.82,6.83,17.92,0,24.75c-3.12,3.12-3.12,8.19,0,11.31c1.57,1.56,3.61,2.34,5.66,2.34s4.1-0.78,5.66-2.34
		c4.56-4.57,7.64-10.22,9.01-16.37c9.91-4.18,20.19-4.18,30.1,0c1.36,6.15,4.44,11.8,9.01,16.37c1.56,1.56,3.61,2.34,5.65,2.34
		c2.05,0,4.1-0.78,5.66-2.34c3.13-3.12,3.13-8.19,0-11.31C260.11,354.52,260.11,343.42,266.93,336.6z M187.89,281.33
		c0.41-3.21-1.16-6.35-3.97-7.96l-33.21-18.96c-3.84-2.2-8.73-0.86-10.92,2.98c-2.19,3.83-0.85,8.72,2.98,10.91l16.45,9.39
		l-17.18,4.69c-4.27,1.16-6.78,5.56-5.61,9.83c0.97,3.55,4.19,5.89,7.71,5.89c0.7,0,1.41-0.09,2.11-0.28l35.81-9.78
		C185.18,287.18,187.48,284.54,187.89,281.33z"/>
	<path style="fill:#333333;" d="M440.28,243.25c4.31,6.64,6.83,14.56,6.83,23.05c0,21.15-15.54,38.73-35.8,41.94
		c-10.81,88.79-86.64,157.79-178.29,157.79c-91.66,0-167.49-69-178.3-157.79c-20.26-3.21-35.8-20.79-35.8-41.94
		c0-8.49,2.52-16.4,6.83-23.04c-1.75-10.95-2.65-22.15-2.65-33.34C23.1,94.17,117.27,0,233.01,0
		c115.75,0,209.92,94.17,209.92,209.92C442.93,221.11,442.03,232.3,440.28,243.25z M431.11,266.3c0-11.8-7.77-21.83-18.47-25.23
		v45.33c0,1.73-0.03,3.45-0.08,5.16C423.3,288.18,431.11,278.14,431.11,266.3z M425.93,229.58c0.66-6.52,1-13.09,1-19.66
		C426.93,102.99,339.94,16,233.01,16C126.09,16,39.1,102.99,39.1,209.92c0,6.57,0.34,13.15,1,19.66c4.05-2.36,8.53-4.07,13.29-4.98
		v-20.92c0-18.29,9.59-34.47,25.64-43.27c15.95-8.75,34.61-8.16,49.91,1.6c31.07,19.8,67.05,30.26,104.07,30.26
		s73.01-10.46,104.08-30.26c15.3-9.76,33.95-10.35,49.91-1.61c16.05,8.81,25.64,24.99,25.64,43.28v20.92
		C417.4,225.51,421.87,227.22,425.93,229.58z M396.64,286.4v-82.72c0-12.36-6.48-23.29-17.34-29.25
		c-10.75-5.89-23.31-5.49-33.61,1.07c-33.64,21.44-72.6,32.77-112.68,32.77c-40.07,0-79.03-11.33-112.67-32.77
		c-5.45-3.47-11.54-5.22-17.65-5.22c-5.44,0-10.9,1.38-15.96,4.15c-10.86,5.96-17.34,16.89-17.34,29.25v82.72
		c0,90.23,73.4,163.63,163.63,163.63C323.24,450.03,396.64,376.63,396.64,286.4z M53.47,291.56c-0.05-1.71-0.08-3.43-0.08-5.16
		v-45.33c-10.7,3.4-18.47,13.43-18.47,25.23C34.92,278.14,42.73,288.18,53.47,291.56z"/>
	<path style="fill:#333333;" d="M324,282.38c4.26,1.16,6.77,5.56,5.61,9.83c-0.97,3.55-4.2,5.89-7.72,5.89
		c-0.69,0-1.4-0.09-2.11-0.28l-35.81-9.78c-3.12-0.86-5.42-3.5-5.83-6.71c-0.4-3.21,1.16-6.35,3.97-7.96l33.22-18.96
		c3.83-2.2,8.72-0.86,10.91,2.98c2.19,3.83,0.86,8.72-2.98,10.91l-16.44,9.39L324,282.38z"/>
	<path style="fill:#333333;" d="M266.93,325.29c3.13,3.12,3.13,8.18,0,11.31c-6.82,6.82-6.82,17.92,0,24.75
		c3.13,3.12,3.13,8.19,0,11.31c-1.56,1.56-3.61,2.34-5.66,2.34c-2.04,0-4.09-0.78-5.65-2.34c-4.57-4.57-7.65-10.22-9.01-16.37
		c-9.91-4.18-20.19-4.18-30.1,0c-1.37,6.15-4.45,11.8-9.01,16.37c-1.56,1.56-3.61,2.34-5.66,2.34s-4.09-0.78-5.66-2.34
		c-3.12-3.12-3.12-8.19,0-11.31c6.83-6.83,6.83-17.93,0-24.75c-3.12-3.13-3.12-8.19,0-11.31c3.13-3.13,8.19-3.13,11.32,0
		c4.03,4.02,6.9,8.9,8.46,14.21c10.28-3.11,20.91-3.11,31.2,0c1.56-5.31,4.43-10.19,8.46-14.21
		C258.74,322.16,263.81,322.16,266.93,325.29z"/>
	<path style="fill:#333333;" d="M183.92,273.37c2.81,1.61,4.38,4.75,3.97,7.96c-0.41,3.21-2.71,5.85-5.83,6.71l-35.81,9.78
		c-0.7,0.19-1.41,0.28-2.11,0.28c-3.52,0-6.74-2.34-7.71-5.89c-1.17-4.27,1.34-8.67,5.61-9.83l17.18-4.69l-16.45-9.39
		c-3.83-2.19-5.17-7.08-2.98-10.91c2.19-3.84,7.08-5.18,10.92-2.98L183.92,273.37z"/>
</g>
<g>
</g>
<g>
</g>
<g>
</g>
<g>
</g>
<g>
</g>
<g>
</g>
<g>
</g>
<g>
</g>
<g>
</g>
<g>
</g>
<g>
</g>
<g>
</g>
<g>
</g>
<g>
</g>
<g>
</g>
</svg>
